<svg xmlns="http://www.w3.org/2000/svg" style="display: none;">
  <defs>
    <symbol id="icon-reload" viewBox="0 0 20 20">
      <path d="M14.66 15.66c-1.448 1.45-3.449 2.346-5.66 2.346-4.418 0-8-3.582-8-8s3.582-8 8-8c4.416 0 7.996 3.578 8 7.993v0h-2c0-0.002 0-0.003 0-0.005 0-3.314-2.686-6-6-6s-6 2.686-6 6c0 3.314 2.686 6 6 6 1.656 0 3.154-0.671 4.24-1.755l-0 0 1.42 1.42zM12 10h8l-4 4-4-4z"/>
    </symbol>
    <symbol id="icon-debug-overlay" viewBox="0 0 16 16">
      <path d="M0 1.5A1.5 1.5 0 0 1 1.5 0h13A1.5 1.5 0 0 1 16 1.5v13a1.5 1.5 0 0 1-1.5 1.5h-13A1.5 1.5 0 0 1 0 14.5v-13zM1.5 1a.5.5 0 0 0-.5.5V5h4V1H1.5zM5 6H1v4h4V6zm1 4h4V6H6v4zm-1 1H1v3.5a.5.5 0 0 0 .5.5H5v-4zm1 0v4h4v-4H6zm5 0v4h3.5a.5.5 0 0 0 .5-.5V11h-4zm0-1h4V6h-4v4zm0-5h4V1.5a.5.5 0 0 0-.5-.5H11v4zm-1 0V1H6v4h4z"/>
    </symbol>
    <symbol id="icon-code" fill="none" viewBox="0 0 24 24" stroke="currentColor">
      <path stroke-linecap="round" stroke-linejoin="round" stroke-width="2" d="m10 20 4-16m4 4 4 4-4 4M6 16l-4-4 4-4"/>
    </symbol>
    <symbol id="icon-outline" viewBox="0 0 24 24">
      <rect x="2" y="2" width="20" height="20" fill="none" stroke="black" stroke-dasharray="4, 2" stroke-width="2"/>
    </symbol>
    <symbol id="icon-editable" fill="currentColor" viewBox="0 0 16 16">
      <path d="M15.502 1.94a.5.5 0 0 1 0 .706L14.459 3.69l-2-2L13.502.646a.5.5 0 0 1 .707 0l1.293 1.293zm-1.75 2.456-2-2L4.939 9.21a.5.5 0 0 0-.121.196l-.805 2.414a.25.25 0 0 0 .316.316l2.414-.805a.5.5 0 0 0 .196-.12l6.813-6.814z"/>
      <path fill-rule="evenodd" d="M1 13.5A1.5 1.5 0 0 0 2.5 15h11a1.5 1.5 0 0 0 1.5-1.5v-6a.5.5 0 0 0-1 0v6a.5.5 0 0 1-.5.5h-11a.5.5 0 0 1-.5-.5v-11a.5.5 0 0 1 .5-.5H9a.5.5 0 0 0 0-1H2.5A1.5 1.5 0 0 0 1 2.5v11z"/>
    </symbol>
    <symbol id="icon-auth" fill="currentColor" viewBox="0 0 16 16">
      <path d="M3 14s-1 0-1-1 1-4 6-4 6 3 6 4-1 1-1 1H3zm5-6a3 3 0 1 0 0-6 3 3 0 0 0 0 6z"/>
    </symbol>
    <symbol id="icon-fullscreen" viewBox="0 0 32 32">
      <path d="M32 0H19l5 5-6 6 3 3 6-6 5 5z"/>
      <path d="M32 32V19l-5 5-6-6-3 3 6 6-5 5z"/>
      <path d="M0 32h13l-5-5 6-6-3-3-6 6-5-5z"/>
      <path d="M0 0v13l5-5 6 6 3-3-6-6 5-5z"/>
    </symbol>
    <symbol id="icon-new-window" viewBox="0 0 24 24">
      <path d="M17 13v6c0 .276-.111.525-.293.707S16.276 20 16 20H5c-.276 0-.525-.111-.707-.293S4 19.276 4 19V8c0-.276.111-.525.293-.707S4.724 7 5 7h6a1 1 0 0 0 0-2H5a2.997 2.997 0 0 0-3 3v11a2.997 2.997 0 0 0 3 3h11a2.997 2.997 0 0 0 3-3v-6a1 1 0 0 0-2 0zm-6.293 1.707L20 5.414V9a1 1 0 0 0 2 0V3a.995.995 0 0 0-.292-.706l-.002-.002A.996.996 0 0 0 21 2h-6a1 1 0 0 0 0 2h3.586l-9.293 9.293a.999.999 0 1 0 1.414 1.414z"/>
      <path d="M17 13v6c0 0.276-0.111 0.525-0.293 0.707s-0.431 0.293-0.707 0.293h-11c-0.276 0-0.525-0.111-0.707-0.293s-0.293-0.431-0.293-0.707v-11c0-0.276 0.111-0.525 0.293-0.707s0.431-0.293 0.707-0.293h6c0.552 0 1-0.448 1-1s-0.448-1-1-1h-6c-0.828 0-1.58 0.337-2.121 0.879s-0.879 1.293-0.879 2.121v11c0 0.828 0.337 1.58 0.879 2.121s1.293 0.879 2.121 0.879h11c0.828 0 1.58-0.337 2.121-0.879s0.879-1.293 0.879-2.121v-6c0-0.552-0.448-1-1-1s-1 0.448-1 1zM10.707 14.707l9.293-9.293v3.586c0 0.552 0.448 1 1 1s1-0.448 1-1v-6c0-0.136-0.027-0.265-0.076-0.383s-0.121-0.228-0.216-0.323c-0.001-0.001-0.001-0.001-0.002-0.002-0.092-0.092-0.202-0.166-0.323-0.216-0.118-0.049-0.247-0.076-0.383-0.076h-6c-0.552 0-1 0.448-1 1s0.448 1 1 1h3.586l-9.293 9.293c-0.391 0.391-0.391 1.024 0 1.414s1.024 0.391 1.414 0z"/>
    </symbol>
  </defs>
</svg>
